<?xml version="1.0"?>
<svg xmlns="http://www.w3.org/2000/svg" xmlns:xlink="http://www.w3.org/1999/xlink" version="1.1" id="Layer_1" x="0px" y="0px" viewBox="0 0 368.666 368.666" style="enable-background:new 0 0 368.666 368.666;" xml:space="preserve" width="512px" height="512px" class=""><g><g id="XMLID_809_">
	<g>
		<g>
			<path d="M184.333,0C102.01,0,35.036,66.974,35.036,149.297c0,33.968,11.132,65.959,32.193,92.515     c27.27,34.383,106.571,116.021,109.934,119.479l7.17,7.375l7.17-7.374c3.363-3.459,82.688-85.116,109.963-119.51     c21.042-26.534,32.164-58.515,32.164-92.485C333.63,66.974,266.655,0,184.333,0z M285.796,229.355     c-21.957,27.687-80.921,89.278-101.463,110.581c-20.54-21.302-79.482-82.875-101.434-110.552     C64.67,206.4,55.036,178.707,55.036,149.297C55.036,78.002,113.038,20,184.333,20S313.63,78.002,313.63,149.297     C313.63,178.708,304.005,206.392,285.796,229.355z" data-original="#000000" class="active-path" data-old_color="#000000" fill="#FFFFFF"/>
			<path d="M184.333,59.265c-48.729,0-88.374,39.645-88.374,88.374s39.645,88.374,88.374,88.374s88.374-39.644,88.374-88.374     C272.707,98.909,233.062,59.265,184.333,59.265z M184.333,216.013c-37.701,0-68.374-30.672-68.374-68.374     c0-37.702,30.673-68.374,68.374-68.374s68.374,30.672,68.374,68.374C252.707,185.34,222.034,216.013,184.333,216.013z" data-original="#000000" class="active-path" data-old_color="#000000" fill="#FFFFFF"/>
			<rect x="174.333" y="132.16" width="20" height="60" data-original="#000000" class="active-path" data-old_color="#000000" fill="#FFFFFF"/>
			<rect x="174.333" y="102.16" width="20" height="20" data-original="#000000" class="active-path" data-old_color="#000000" fill="#FFFFFF"/>
		</g>
	</g>
</g></g> </svg>
