<?xml version="1.0"?>
<svg xmlns="http://www.w3.org/2000/svg" height="512px" viewBox="0 -39 497.33333 497" width="512px" class=""><g><path d="m147.867188 281.367188h-5.332032c-61.828125-.074219-111.929687-50.175782-112-112v-37.601563h21.332032v37.601563c.074218 50.042968 40.621093 90.59375 90.667968 90.667968h5.332032zm0 0" data-original="#000000" class="active-path" data-old_color="#000000" fill="#323232"/><path d="m179.867188 420.035156c-53.472657.046875-105.8125-15.421875-150.667969-44.535156l-29.199219-18.933594 34.800781-.667968c31.199219-.664063 60.800781-7.730469 85.332031-20.398438-35.125-16.949219-57.492187-52.464844-57.597656-91.464844l21.332032-.800781c0 38.398437 26.667968 71.332031 63.464843 79.066406l23.601563 4.933594-19.601563 14.132813c-22.53125 16.265624-50.664062 27.332031-81.199219 32.53125 34.277344 16.332031 71.765626 24.804687 109.734376 24.800781 141.199218 0 256-114.800781 256-256v-24.265625l23.867187-39.734375h-28l13.199219-39.199219-33.066406 14.800781-5.199219-4.800781c-26.414063-24.523438-64.855469-31.042969-97.878907-16.601562-33.019531 14.441406-54.332031 47.09375-54.253906 83.136718v26.796875h-10.800781c-83.199219-1.464843-157.867187-37.199219-196.667969-92.664062-10.996094 31.011719-6.25 65.433593 12.730469 92.316406 18.980469 26.878906 49.832031 42.871094 82.738281 42.882813h5.332032v21.332031h-5.332032c-43.925781-.019531-84.488281-23.523438-106.347656-61.625-21.855469-38.097657-21.675781-84.976563.480469-122.90625l9.730469-16.667969 8.933593 17.066406c29.335938 56 98.402344 93.867188 178 98.398438v-4.929688c.011719-43.148437 24.835938-82.445312 63.796875-100.984375 38.964844-18.542969 85.113282-13.023437 118.605469 14.183594l64.800781-29.066406-19.203125 57.199219h36l-40.132812 66.933593v18.398438c0 152.933593-124.398438 277.335937-277.332031 277.335937zm0 0" data-original="#000000" class="active-path" data-old_color="#000000" fill="#323232"/></g> </svg>
